<svg width="720" height="480" viewBox="0 0 720 480" fill="none" xmlns="http://www.w3.org/2000/svg">
  <rect width="720" height="480" rx="36" fill="#030712" />
  <rect x="24" y="24" width="672" height="432" rx="28" fill="url(#grad)" opacity="0.35" />
  <rect x="48" y="64" width="624" height="72" rx="18" fill="#0f172a" stroke="#1e293b" stroke-width="2" />
  <rect x="64" y="88" width="120" height="8" rx="4" fill="#6366f1" />
  <rect x="64" y="104" width="220" height="12" rx="6" fill="#cbd5f5" opacity="0.85" />
  <g transform="translate(48 160)">
    <rect width="180" height="180" rx="24" fill="#0f172a" stroke="#1e293b" stroke-width="2" />
    <rect x="24" y="28" width="88" height="10" rx="5" fill="#818cf8" />
    <rect x="24" y="52" width="132" height="12" rx="6" fill="#e2e8f0" opacity="0.85" />
    <rect x="24" y="76" width="120" height="8" rx="4" fill="#94a3b8" />
    <rect x="24" y="120" width="132" height="34" rx="12" fill="#6366f1" />
  </g>
  <g transform="translate(252 160)">
    <rect width="180" height="180" rx="24" fill="#0f172a" stroke="#1e293b" stroke-width="2" />
    <rect x="24" y="28" width="90" height="10" rx="5" fill="#34d399" />
    <rect x="24" y="52" width="132" height="12" rx="6" fill="#e2e8f0" opacity="0.85" />
    <rect x="24" y="76" width="120" height="8" rx="4" fill="#94a3b8" />
    <rect x="24" y="120" width="132" height="34" rx="12" fill="#34d399" />
  </g>
  <g transform="translate(456 160)">
    <rect width="180" height="180" rx="24" fill="#0f172a" stroke="#1e293b" stroke-width="2" />
    <rect x="24" y="28" width="90" height="10" rx="5" fill="#22d3ee" />
    <rect x="24" y="52" width="132" height="12" rx="6" fill="#e2e8f0" opacity="0.85" />
    <rect x="24" y="76" width="120" height="8" rx="4" fill="#94a3b8" />
    <rect x="24" y="120" width="132" height="34" rx="12" fill="#22d3ee" />
  </g>
  <defs>
    <linearGradient id="grad" x1="0" y1="0" x2="720" y2="480" gradientUnits="userSpaceOnUse">
      <stop offset="0" stop-color="#312e81" />
      <stop offset="1" stop-color="#0f172a" stop-opacity="0" />
    </linearGradient>
  </defs>
</svg>
