<svg width="720" height="480" viewBox="0 0 720 480" fill="none" xmlns="http://www.w3.org/2000/svg">
  <rect width="720" height="480" rx="36" fill="#020617" />
  <rect x="40" y="52" width="640" height="376" rx="28" fill="#0f172a" stroke="#1e293b" stroke-width="2" />
  <rect x="64" y="76" width="592" height="56" rx="18" fill="#111c30" />
  <rect x="88" y="98" width="140" height="10" rx="5" fill="#6366f1" />
  <rect x="260" y="98" width="120" height="10" rx="5" fill="#22d3ee" opacity="0.6" />
  <rect x="64" y="148" width="592" height="96" rx="18" fill="#111c30" />
  <rect x="88" y="168" width="420" height="14" rx="7" fill="#e2e8f0" />
  <rect x="88" y="192" width="360" height="10" rx="5" fill="#94a3b8" />
  <g>
    <rect x="64" y="264" width="592" height="140" rx="22" fill="#0b1120" />
    <rect x="96" y="284" width="520" height="16" rx="8" fill="#cbd5f5" />
    <rect x="96" y="312" width="520" height="16" rx="8" fill="#cbd5f5" opacity="0.7" />
    <rect x="96" y="340" width="520" height="16" rx="8" fill="#cbd5f5" opacity="0.45" />
    <rect x="96" y="368" width="260" height="16" rx="8" fill="#cbd5f5" opacity="0.3" />
  </g>
  <rect x="118" y="420" width="210" height="32" rx="16" fill="#34d399" />
  <rect x="388" y="420" width="210" height="32" rx="16" fill="#fbbf24" />
  <circle cx="596" cy="98" r="12" fill="#22d3ee" />
  <circle cx="628" cy="98" r="12" fill="#34d399" />
  <circle cx="660" cy="98" r="12" fill="#f59e0b" />
</svg>
